<svg width="392" height="392" viewBox="0 0 392 392" fill="none" xmlns="http://www.w3.org/2000/svg">
<g clip-path="url(#clip0_2679_9)">
<rect width="392" height="392" rx="120" fill="black"/>
<path d="M176.603 93.6526C195.497 93.8828 204.944 93.9979 212.804 97.3658C219.741 100.338 225.773 105.083 230.295 111.125C235.419 117.971 237.755 127.126 242.428 145.434L251.275 180.1C252.678 185.599 253.38 188.349 252.713 190.505C252.129 192.394 250.866 193.999 249.167 195.012C247.229 196.168 244.392 196.133 238.716 196.064L126.006 194.691C106.346 194.451 96.5158 194.331 88.4421 190.752C81.3206 187.594 75.1905 182.561 70.7069 176.191C65.6238 168.969 63.5924 159.35 59.5295 140.112L52.6928 107.741C51.5636 102.395 50.999 99.7216 51.7111 97.6373C52.3354 95.8097 53.5998 94.2698 55.2708 93.3016C57.1766 92.1973 59.9085 92.2306 65.3725 92.2972L176.603 93.6526Z" fill="white"/>
<g opacity="0.5" filter="url(#filter0_f_2679_9)">
<path d="M256.363 161.565L297.312 248.07L112.826 245.822L76.3768 159.372L256.363 161.565Z" fill="black"/>
</g>
<path d="M225.108 166.034C242.557 166.247 251.281 166.353 258.714 169.325C265.28 171.95 271.097 176.153 275.651 181.563C280.806 187.688 283.645 195.938 289.324 212.438L299.857 243.039C301.848 248.825 302.844 251.718 302.276 254.011C301.779 256.018 300.524 257.754 298.775 258.856C296.776 260.115 293.716 260.078 287.598 260.004L172.004 258.595C153.794 258.373 144.689 258.262 137.027 255.082C130.262 252.275 124.327 247.787 119.783 242.042C114.637 235.536 112.05 226.806 106.877 209.345L98.5014 181.078C96.8315 175.442 95.9966 172.624 96.619 170.404C97.1639 168.459 98.4241 166.793 100.147 165.739C102.114 164.535 105.052 164.571 110.93 164.643L225.108 166.034Z" fill="white"/>
<g opacity="0.5" filter="url(#filter1_f_2679_9)">
<path d="M304.712 214.703L349.522 286.802L148.851 284.356L108.936 212.318L304.712 214.703Z" fill="black"/>
</g>
<path d="M282.159 231.823C296.067 231.992 303.021 232.077 309.271 234.118C314.803 235.925 319.911 238.835 324.285 242.674C329.227 247.011 332.845 252.95 340.08 264.83L349.416 280.159C353.34 286.6 355.301 289.821 355.058 292.457C354.847 294.754 353.653 296.848 351.785 298.201C349.641 299.754 345.87 299.708 338.328 299.616L217.316 298.141C202.623 297.962 195.277 297.873 188.747 295.632C182.971 293.65 177.683 290.46 173.235 286.275C168.208 281.544 164.702 275.088 157.691 262.175L150.683 249.266C147.259 242.961 145.547 239.809 145.873 237.249C146.158 235.015 147.371 233.005 149.214 231.711C151.326 230.229 154.913 230.272 162.087 230.36L282.159 231.823Z" fill="#4F46E5"/>
</g>
<defs>
<filter id="filter0_f_2679_9" x="52.3768" y="135.372" width="268.936" height="136.699" filterUnits="userSpaceOnUse" color-interpolation-filters="sRGB">
<feFlood flood-opacity="0" result="BackgroundImageFix"/>
<feBlend mode="normal" in="SourceGraphic" in2="BackgroundImageFix" result="shape"/>
<feGaussianBlur stdDeviation="12" result="effect1_foregroundBlur_2679_9"/>
</filter>
<filter id="filter1_f_2679_9" x="84.9358" y="188.318" width="288.586" height="122.484" filterUnits="userSpaceOnUse" color-interpolation-filters="sRGB">
<feFlood flood-opacity="0" result="BackgroundImageFix"/>
<feBlend mode="normal" in="SourceGraphic" in2="BackgroundImageFix" result="shape"/>
<feGaussianBlur stdDeviation="12" result="effect1_foregroundBlur_2679_9"/>
</filter>
<clipPath id="clip0_2679_9">
<rect width="392" height="392" fill="white"/>
</clipPath>
</defs>
</svg>
